<svg width="960" height="540" viewBox="0 0 960 540" fill="none" xmlns="http://www.w3.org/2000/svg">
  <rect width="960" height="540" rx="24" fill="#0B1220"/>
  <rect x="28" y="28" width="904" height="484" rx="16" fill="#111827" stroke="#1F2937"/>
  <rect x="54" y="56" width="260" height="120" rx="12" fill="#1E293B"/>
  <rect x="334" y="56" width="260" height="120" rx="12" fill="#1E293B"/>
  <rect x="614" y="56" width="292" height="120" rx="12" fill="#1E293B"/>
  <rect x="54" y="196" width="552" height="290" rx="12" fill="#1E293B"/>
  <rect x="626" y="196" width="280" height="290" rx="12" fill="#1E293B"/>

  <rect x="74" y="78" width="95" height="10" rx="5" fill="#60A5FA"/>
  <rect x="74" y="98" width="130" height="8" rx="4" fill="#475569"/>
  <rect x="74" y="118" width="80" height="8" rx="4" fill="#475569"/>

  <rect x="354" y="78" width="95" height="10" rx="5" fill="#34D399"/>
  <rect x="354" y="98" width="140" height="8" rx="4" fill="#475569"/>
  <rect x="354" y="118" width="100" height="8" rx="4" fill="#475569"/>

  <rect x="634" y="78" width="120" height="10" rx="5" fill="#F59E0B"/>
  <rect x="634" y="98" width="230" height="8" rx="4" fill="#475569"/>
  <rect x="634" y="118" width="180" height="8" rx="4" fill="#475569"/>

  <polyline points="86,430 150,380 210,395 285,320 355,345 425,280 500,300 578,238"
    stroke="#60A5FA" stroke-width="5" fill="none" stroke-linecap="round" stroke-linejoin="round"/>
  <circle cx="578" cy="238" r="7" fill="#60A5FA"/>

  <circle cx="766" cy="318" r="84" fill="#111827" stroke="#334155" stroke-width="16"/>
  <path d="M766 234 A84 84 0 1 1 698 356" stroke="#34D399" stroke-width="16" fill="none" stroke-linecap="round"/>
  <path d="M698 356 A84 84 0 0 1 766 234" stroke="#F59E0B" stroke-width="16" fill="none" stroke-linecap="round"/>

  <rect x="672" y="430" width="90" height="10" rx="5" fill="#34D399"/>
  <rect x="672" y="450" width="140" height="8" rx="4" fill="#475569"/>
  <rect x="672" y="470" width="70" height="8" rx="4" fill="#475569"/>
</svg>
