<svg xmlns="http://www.w3.org/2000/svg" viewBox="0 0 64 64" role="img" aria-label="Driver db">
  <rect width="64" height="64" rx="16" fill="#ff6a00" />
  <path d="M16 36l4-10c1-2 3-3 5-3h14c2 0 4 1 5 3l4 10" fill="none" stroke="#ffffff" stroke-width="4" stroke-linecap="round" stroke-linejoin="round"/>
  <path d="M14 37h36c2 0 4 2 4 4v5H10v-5c0-2 2-4 4-4z" fill="#ffffff"/>
  <path d="M21 30h22l-2-5c-.4-.8-1.2-1.3-2.1-1.3H25.1c-.9 0-1.7.5-2.1 1.3L21 30z" fill="#ffedd5"/>
  <circle cx="20" cy="44" r="5" fill="#1f2937"/>
  <circle cx="44" cy="44" r="5" fill="#1f2937"/>
  <circle cx="20" cy="44" r="2" fill="#ffffff"/>
  <circle cx="44" cy="44" r="2" fill="#ffffff"/>
</svg>